<?xml version="1.0" standalone="no"?><!DOCTYPE svg PUBLIC "-//W3C//DTD SVG 1.1//EN" "http://www.w3.org/Graphics/SVG/1.1/DTD/svg11.dtd"><svg t="1548401342630" class="icon" style="" viewBox="0 0 1024 1024" version="1.1" xmlns="http://www.w3.org/2000/svg" p-id="9301" xmlns:xlink="http://www.w3.org/1999/xlink" width="200" height="200"><defs><style type="text/css"></style></defs><path d="M934.925 412.486c24.201-16.066 24.878-28.351 24.878-49.757V213.467c0-41.218-33.416-74.634-74.634-74.634H138.83c-41.217 0-74.633 33.416-74.633 74.634v149.262c0 22.296 1.552 37.168 24.878 49.757 33.988 15.827 74.634 47.805 74.634 99.516 0 67.106-42.183 88.939-73.167 99.403-21.808 13.648-26.346 36.123-26.346 49.86v149.268c0 41.223 33.416 74.634 74.634 74.634h746.339c41.218 0 74.634-33.41 74.634-74.634V661.266c0-27.172-6.24-35.784-24.878-49.757-54.338-28.013-74.634-52.95-74.634-99.512 0.001-46.562 19.008-69.732 74.635-99.511zM910.048 652.13v133.53c0 27.474-22.276 49.756-49.757 49.756H163.708c-27.48 0-49.757-22.28-49.757-49.756V652.13c57.847-20.565 99.513-75.232 99.513-140.128 0-64.902-41.666-119.568-99.513-140.127V238.344c0-27.48 22.276-49.756 49.757-49.756H860.29c27.48 0 49.757 22.275 49.757 49.756v133.53c-57.842 20.56-99.513 75.227-99.513 140.128 0 64.897 41.671 119.564 99.513 140.129z m-261.22-189.89H554.91l101.95-109.537c4.409-4.817 4.409-12.633 0-17.455l-15.956-17.454c-4.409-4.822-11.548-4.822-15.957 0L511.881 439.27l-113.11-121.515c-4.374-4.782-11.465-4.782-15.833 0l-15.833 17.32c-4.374 4.782-4.374 12.534 0 17.316l102.254 109.85H375.17c-6.872 0-12.44 5.574-12.44 12.44v24.883c0 6.871 5.568 12.44 12.44 12.44h111.95v49.755h-111.95c-6.872 0-12.44 5.568-12.44 12.44v24.877c0 6.867 5.568 12.44 12.44 12.44h111.95v87.073c0 6.866 5.568 12.439 12.44 12.439h24.877c6.872 0 12.44-5.573 12.44-12.44v-87.072h111.95c6.872 0 12.44-5.573 12.44-12.44V574.2c0-6.872-5.568-12.44-12.44-12.44h-111.95v-49.756h111.95c6.872 0 12.44-5.568 12.44-12.44v-24.882c0-6.867-5.568-12.44-12.44-12.44z" p-id="9302" fill="#7CA7D2"></path></svg>