<?xml version="1.0" standalone="no"?><!DOCTYPE svg PUBLIC "-//W3C//DTD SVG 1.1//EN" "http://www.w3.org/Graphics/SVG/1.1/DTD/svg11.dtd"><svg t="1548400927713" class="icon" style="" viewBox="0 0 1024 1024" version="1.1" xmlns="http://www.w3.org/2000/svg" p-id="4532" xmlns:xlink="http://www.w3.org/1999/xlink" width="200" height="200"><defs><style type="text/css"></style></defs><path d="M902 741.6c13.3 0 24-10.7 24-24V473.4c0-8.1-4-15.2-10.1-19.6-1.3-1.8-2.9-3.4-4.7-4.7l-114.3-87.3v-211c0-27-22-49-49-49H276.2c-27 0-49 22-49 49v210.9L112.9 449c-1.8 1.4-3.3 3-4.7 4.7-6.1 4.4-10.1 11.5-10.1 19.6v321.9c0 70.8 57.6 128.4 128.4 128.4h571.2c57.8 0 108.7-39 123.9-94.8 3.5-12.8-4.1-26-16.9-29.5-12.8-3.5-26 4.1-29.5 16.9-9.5 35-41.4 59.4-77.6 59.4H226.4c-44.3 0-80.4-36.1-80.4-80.4v-288l353.7 211.5c3.8 2.3 8.1 3.4 12.3 3.4 4.3 0 8.5-1.1 12.3-3.4L878 507.3v210.3c0 13.2 10.7 24 24 24zM227.1 422.1v77.7l-57-34.1 57-43.6zM512 670.2L275.1 528.5V150.8c0-0.5 0.5-1 1-1h471.7c0.5 0 1 0.5 1 1v377.7L512 670.2z m284.9-170.4v-77.7l57 43.6-57 34.1z" p-id="4533" fill="#7CA7D2"></path><path d="M664.5 209.8H359.6c-13.7 0-25 11.3-25 25v2.2c0 13.8 11.3 25 25 25h304.8c13.8 0 25-11.3 25-25v-2.2c0.1-13.7-11.2-25-24.9-25zM664.5 351.3H359.6c-13.7 0-25 11.3-25 25v2.2c0 13.8 11.3 25 25 25h304.8c13.8 0 25-11.3 25-25v-2.2c0.1-13.8-11.2-25-24.9-25zM522.2 492.7H359.6c-13.7 0-25 11.3-25 25v2.2c0 13.8 11.3 25 25 25h162.6c13.8 0 25-11.3 25-25v-2.2c0-13.8-11.2-25-25-25z" p-id="4534" fill="#7CA7D2"></path></svg>