<?xml version="1.0" standalone="no"?><!DOCTYPE svg PUBLIC "-//W3C//DTD SVG 1.1//EN" "http://www.w3.org/Graphics/SVG/1.1/DTD/svg11.dtd"><svg t="1548401370496" class="icon" style="" viewBox="0 0 1024 1024" version="1.1" xmlns="http://www.w3.org/2000/svg" p-id="10094" xmlns:xlink="http://www.w3.org/1999/xlink" width="200" height="200"><defs><style type="text/css"></style></defs><path d="M512 1013.312c-276.416 0-501.312-224.896-501.312-501.312S235.584 10.688 512 10.688 1013.312 235.584 1013.312 512 788.416 1013.312 512 1013.312zM512 71.232c-243.008 0-440.768 197.76-440.768 440.768S268.992 952.768 512 952.768s440.768-197.76 440.768-440.768S755.008 71.232 512 71.232z" p-id="10095" fill="#7CA7D2"></path><path d="M545.152 889.024 488.512 889.024l0-84.352c-55.488-0.512-105.344-12.736-149.504-36.608l0-105.856c14.784 12.352 37.952 24 69.376 34.944 31.424 11.008 58.176 16.832 80.128 17.6L488.512 562.688C433.984 543.168 393.856 519.68 368.064 492.16 342.272 464.64 329.344 430.4 329.344 389.44c0-41.216 14.912-76.8 44.8-106.752s67.968-46.784 114.368-50.496L488.512 158.208l56.64 0 0 72.512c54.784 2.496 96.064 11.2 123.968 26.304l0 103.616C632.576 337.92 591.232 324.352 545.152 319.872l0 158.016c56.512 21.44 97.536 45.12 123.072 71.04 25.536 25.92 38.272 58.688 38.272 98.432 0 43.392-14.336 78.784-42.944 106.048-28.608 27.264-68.096 43.456-118.4 48.64L545.152 889.024zM488.512 321.408c-38.208 7.168-57.344 27.648-57.344 61.44 0 28.352 19.136 52.416 57.344 72.192L488.512 321.408zM545.152 712.896c39.488-6.144 59.2-26.176 59.2-59.968 0-27.392-19.712-50.112-59.2-68.096L545.152 712.896z" p-id="10096" fill="#7CA7D2"></path></svg>