<?xml version="1.0" encoding="UTF-8"?>
<svg width="14px" height="14px" viewBox="0 0 14 14" version="1.1" xmlns="http://www.w3.org/2000/svg" xmlns:xlink="http://www.w3.org/1999/xlink">
    <!-- Generator: Sketch 52.4 (67378) - http://www.bohemiancoding.com/sketch -->
    <title>意见反馈</title>
    <desc>Created with Sketch.</desc>
    <g id="快马小程序" stroke="none" stroke-width="1" fill="none" fill-rule="evenodd">
        <g id="18-我的" transform="translate(-12.000000, -367.000000)">
            <g id="Group-5" transform="translate(0.000000, 174.000000)">
                <g id="意见反馈" transform="translate(0.000000, 177.000000)">
                    <g id="Group-4" transform="translate(12.000000, 12.000000)">
                        <g id="意见反馈" transform="translate(0.000000, 4.000000)">
                            <path d="M11.9949468,14 L1.72021277,14 C0.774468085,14 0.00930851064,13.2762861 0.00930851064,12.3839398 L0.00930851064,1.61606023 C0.00930851064,0.723713927 0.776329787,0.0017565872 1.72021277,0.0017565872 L9.7087766,0.0017565872 C10.025266,0.0017565872 10.2803191,0.242409034 10.2803191,0.539272271 C10.2803191,0.837892095 10.025266,1.07854454 9.7087766,1.07854454 L1.72021277,1.07854454 C1.40744681,1.07854454 1.15053191,1.32095358 1.15053191,1.61606023 L1.15053191,12.3839398 C1.15053191,12.6825596 1.40744681,12.923212 1.72021277,12.923212 L11.9912234,12.923212 C12.3077128,12.923212 12.562766,12.6825596 12.562766,12.3839398 L12.562766,3.76787955 C12.562766,3.46925972 12.8178191,3.23036386 13.1324468,3.23036386 C13.4489362,3.23036386 13.7039894,3.47101631 13.7039894,3.76787955 L13.7039894,12.3821832 C13.7077128,13.2727729 12.9369681,14 11.9949468,14 Z" id="Path" fill="#000000"></path>
                            <path d="M7.75026596,6.42910916 C7.60319149,6.42910916 7.45797872,6.37641154 7.34441489,6.26925972 C7.12101064,6.05846926 7.12101064,5.71944793 7.34441489,5.50865747 L13.0170213,0.159849435 C13.2404255,-0.0509410289 13.599734,-0.0509410289 13.8231383,0.159849435 C14.0465426,0.3706399 14.0465426,0.70966123 13.8231383,0.920451694 L8.15239362,6.2727729 C8.04069149,6.37816813 7.89361702,6.42910916 7.75026596,6.42910916 Z M6.28510638,5.38218319 L2.86143617,5.38218319 C2.54494681,5.38218319 2.29175532,5.14153074 2.29175532,4.84291092 C2.29175532,4.54429109 2.54680851,4.30539523 2.86143617,4.30539523 L6.28510638,4.30539523 C6.60159574,4.30539523 6.85664894,4.54604768 6.85664894,4.84291092 C6.85664894,5.14153074 6.60159574,5.38218319 6.28510638,5.38218319 Z M9.7125,8.61254705 L2.86143617,8.61254705 C2.54494681,8.61254705 2.29175532,8.3718946 2.29175532,8.07327478 C2.29175532,7.77465496 2.54680851,7.5357591 2.86143617,7.5357591 L9.7087766,7.5357591 C10.025266,7.5357591 10.2803191,7.77641154 10.2803191,8.07327478 C10.2803191,8.3718946 10.025266,8.61254705 9.7125,8.61254705 Z" id="Shape" fill="#7CA7D2" fill-rule="nonzero"></path>
                        </g>
                    </g>
                </g>
            </g>
        </g>
    </g>
</svg>