<?xml version="1.0" standalone="no"?><!DOCTYPE svg PUBLIC "-//W3C//DTD SVG 1.1//EN"
  "http://www.w3.org/Graphics/SVG/1.1/DTD/svg11.dtd">
<svg t="1548401723206" class="icon" style="" viewBox="0 0 1024 1024" version="1.1" xmlns="http://www.w3.org/2000/svg"
     p-id="11011" xmlns:xlink="http://www.w3.org/1999/xlink" width="200" height="200">
  <defs>
    <style type="text/css"></style>
  </defs>
  <path
    d="M217.005382 173.797301 104.784508 173.797301c-22.605857 0-40.932248-18.326391-40.932248-40.932248s18.326391-40.932248 40.932248-40.932248l112.220874 0c22.605857 0 40.932248 18.326391 40.932248 40.932248S239.61124 173.797301 217.005382 173.797301z"
  ></path>
  <path
    d="M918.658813 329.121879 251.349585 329.121879c-22.605857 0-40.932248-18.326391-40.932248-40.932248s18.326391-40.932248 40.932248-40.932248l667.309228 0c22.606881 0 40.932248 18.326391 40.932248 40.932248S941.265694 329.121879 918.658813 329.121879z"
  ></path>
  <path
    d="M791.682887 764.936733 306.508859 764.936733c-22.605857 0-40.932248-18.325367-40.932248-40.932248s18.326391-40.932248 40.932248-40.932248l485.175051 0c22.606881 0 40.932248 18.325367 40.932248 40.932248S814.289768 764.936733 791.682887 764.936733z"
  ></path>
  <path
    d="M817.651328 623.206778 287.269679 623.206778c-22.605857 0-40.932248-18.325367-40.932248-40.932248s18.326391-40.932248 40.932248-40.932248l530.381649 0c22.606881 0 40.932248 18.325367 40.932248 40.932248S840.258209 623.206778 817.651328 623.206778z"
  ></path>
  <path
    d="M306.457694 764.942873c-19.899212 0-37.350676-14.535041-40.420595-34.81083L176.534646 138.992611c-3.384074-22.352077 11.992125-43.214221 34.343179-46.599318 22.358217-3.384074 43.214221 11.993149 46.599318 34.343179l89.503477 591.139431c3.384074 22.352077-11.992125 43.214221-34.343179 46.598294C310.560128 764.789377 308.49612 764.942873 306.457694 764.942873z"
  ></path>
  <path
    d="M817.654398 623.218034c-4.38896 0-8.853645-0.711198-13.239536-2.210341-21.392216-7.310499-32.807197-30.577413-25.496697-51.969629l101.007485-295.569716c7.309476-21.391193 30.576389-32.807197 51.968605-25.496697 21.392216 7.310499 32.807197 30.578436 25.496697 51.969629l-101.007485 295.569716C850.573135 612.517321 834.676074 623.218034 817.654398 623.218034z"
  ></path>
  <path d="M350.002442 865.897146m-62.732763 0a61.304 61.304 0 1 0 125.465526 0 61.304 61.304 0 1 0-125.465526 0Z"
  ></path>
  <path d="M728.951147 865.897146m-62.732763 0a61.304 61.304 0 1 0 125.465526 0 61.304 61.304 0 1 0-125.465526 0Z"
  ></path>
</svg>
