<?xml version="1.0" standalone="no"?><!DOCTYPE svg PUBLIC "-//W3C//DTD SVG 1.1//EN" "http://www.w3.org/Graphics/SVG/1.1/DTD/svg11.dtd"><svg t="1548401292007" class="icon" style="" viewBox="0 0 1024 1024" version="1.1" xmlns="http://www.w3.org/2000/svg" p-id="8465" xmlns:xlink="http://www.w3.org/1999/xlink" width="200" height="200"><defs><style type="text/css"></style></defs><path d="M994.00192 214.23616c2.0224-3.98336 3.26656-8.4224 3.26656-13.19424C997.26336 95.83104 917.02272 10.24 818.40128 10.24L224.96256 10.24C130.0224 10.24 52.34688 89.63072 46.67392 189.43488 17.67936 222.90944 0 266.43456 0 314.09152l0 396.98944c0 16.20992 13.14304 29.35296 29.35296 29.35296 16.21504 0 29.35296-13.14304 29.35296-29.35296L58.70592 314.09152c0-72.832 59.264-132.096 132.096-132.096l640.91136 0c72.84224 0 132.096 59.264 132.096 132.096l0 108.46208-386.81088 0c-75.37152 0-136.69888 61.31712-136.69888 136.6784 0 75.37152 61.32736 136.68352 136.69888 136.68352l386.81088 0 0 124.1088c0 72.84224-59.25376 132.096-132.096 132.096L190.80704 952.12032c-72.83712 0-132.096-59.25376-132.096-132.096 0-16.21504-13.13792-29.35808-29.35296-29.35808-16.20992 0-29.35296 13.14304-29.35296 29.35808 0 105.21088 85.59104 190.80704 190.80704 190.80704l640.91136 0c105.21088 0 190.80704-85.59616 190.80704-190.80704L1022.53056 314.09152C1022.52032 277.46304 1011.968 243.328 994.00192 214.23616zM831.71328 123.2896 190.80704 123.2896c-25.05728 0-48.93696 4.98176-70.87104 13.79328 20.52096-40.58624 59.88352-68.13696 105.02656-68.13696l593.43872 0c49.95072 0 92.86656 33.71008 110.9504 81.52064C900.74624 133.32992 867.41504 123.2896 831.71328 123.2896zM576.9984 637.20448c-42.99776 0-77.98784-34.97472-77.98784-77.97248 0-42.98752 34.98496-77.97248 77.98784-77.97248l386.81088 0 0 155.94496L576.9984 637.20448z" p-id="8466" fill="#7CA7D2"></path><path d="M590.7456 559.23712m-35.47648 0a6.929 6.929 0 1 0 70.95296 0 6.929 6.929 0 1 0-70.95296 0Z" p-id="8467" fill="#7CA7D2"></path></svg>